<svg xmlns="http://www.w3.org/2000/svg" xmlns:xlink="http://www.w3.org/1999/xlink" xmlns:svgjs="http://svgjs.dev/svgjs" version="1.1" width="1000" height="623" viewBox="0 0 1000 623"><g transform="matrix(1,0,0,1,-0.6060606060606233,0.2522267206477409)"><svg xmlns="http://www.w3.org/2000/svg" xmlns:xlink="http://www.w3.org/1999/xlink" viewBox="0 0 396 247" data-background-color="#08c7ae" preserveAspectRatio="xMidYMid meet" height="623" width="1000"><g id="tight-bounds" transform="matrix(1,0,0,1,0.2400000000000091,-0.09999999999999432)"><svg viewBox="0 0 395.52 247.2" height="247.2" width="395.52"><g><svg/></g><g><svg viewBox="0 0 395.52 247.2" height="247.2" width="395.52"><g transform="matrix(1,0,0,1,75.54432,73.55478620689655)"><svg viewBox="0 0 244.43135999999998 100.09042758620687" height="100.09042758620687" width="244.43135999999998"><g><svg viewBox="0 0 244.43135999999998 100.09042758620687" height="100.09042758620687" width="244.43135999999998"><g><svg viewBox="0 0 244.43135999999998 100.09042758620687" height="100.09042758620687" width="244.43135999999998"><g><svg viewBox="0 0 244.43135999999998 100.09042758620687" height="100.09042758620687" width="244.43135999999998"><g id="textblocktransform"><svg viewBox="0 0 244.43135999999998 100.09042758620687" height="100.09042758620687" width="244.43135999999998" id="textblock"><g><svg viewBox="0 0 244.43135999999998 100.09042758620687" height="100.09042758620687" width="244.43135999999998"><g transform="matrix(1,0,0,1,0,0)"><svg width="244.43135999999998" viewBox="3.299999952316284 -37.5 92.78999328613281 38" height="100.09042758620687" data-palette-color="#ffdb99"><path d="M3.3 0L3.3-35 14.5-35Q18.85-35 22.23-32.9 25.6-30.8 27.5-26.85 29.4-22.9 29.4-17.5L29.4-17.5Q29.4-12.1 27.5-8.15 25.6-4.2 22.23-2.1 18.85 0 14.5 0L14.5 0 3.3 0ZM7.85-4.15L13.65-4.15Q18.9-4.15 21.63-7.65 24.35-11.15 24.35-17.5L24.35-17.5Q24.35-23.85 21.63-27.35 18.9-30.85 13.65-30.85L13.65-30.85 7.85-30.85 7.85-4.15ZM38.15 0.5Q35.35 0.5 33.55-1.5 31.75-3.5 31.75-6.6L31.75-6.6Q31.75-11.2 35.6-13.23 39.45-15.25 44.2-15.35L44.2-15.35Q44.2-18.55 43.25-19.8 42.3-21.05 40.05-21.05L40.05-21.05Q37.15-21.05 34.15-18.8L34.15-18.8 33.6-22.45Q36.75-25 40.9-25L40.9-25Q44.85-25 46.75-22.73 48.65-20.45 48.65-15.4L48.65-15.4 48.65-8.25Q48.65-5.4 49.05-4.23 49.45-3.05 50.8-3.05L50.8-3.05 51.35-3.05 50.8 0.5 49.85 0.5Q47.55 0.5 46.45-0.35 45.35-1.2 44.65-3.1L44.65-3.1Q43.5-1.45 41.8-0.48 40.1 0.5 38.15 0.5L38.15 0.5ZM39.5-3.05Q40.7-3.05 42-3.98 43.3-4.9 44.2-6.4L44.2-6.4 44.2-12.25Q40.35-12.05 38.35-10.78 36.35-9.5 36.35-6.85L36.35-6.85Q36.35-3.05 39.5-3.05L39.5-3.05ZM65.5-25Q69.3-25 71.32-22.03 73.34-19.05 73.34-14L73.34-14 73.34 0 69 0 69-13.45Q69-17.35 67.87-19.23 66.75-21.1 64.5-21.1L64.5-21.1Q62.85-21.1 61.45-20.18 60.05-19.25 59.1-17.6L59.1-17.6 59.1 0 54.75 0 54.75-24.5 58.45-24.5 58.75-21.45Q59.8-23.1 61.57-24.05 63.35-25 65.5-25L65.5-25ZM78.49-30.05L78.49-35 82.84-35 82.84-30.05 78.49-30.05ZM78.49 0L78.49-24.5 82.84-24.5 82.84 0 78.49 0ZM94.04 0.5Q91.24 0.5 89.89-1.2 88.54-2.9 88.54-5.4L88.54-5.4 88.54-37.5 92.89-37.5 92.89-8Q92.89-5.8 93.12-4.78 93.34-3.75 93.99-3.4 94.64-3.05 96.09-3.05L96.09-3.05 95.54 0.5 94.04 0.5Z" opacity="1" transform="matrix(1,0,0,1,0,0)" fill="#08c7ae" class="undefined-text-0" data-fill-palette-color="primary" id="text-0"/></svg></g></svg></g></svg></g></svg></g></svg></g></svg></g></svg></g><path d="M169.127 67.555L169.127 16.063 384.201 16.063 384.201 231.137 169.127 231.137 169.127 179.645 178.153 179.645 178.153 222.111 375.174 222.111 375.174 25.089 178.153 25.089 178.153 67.555Z" fill="#08c7ae" stroke="transparent" data-fill-palette-color="primary"/></svg></g><defs/></svg><rect width="395.52" height="247.2" fill="none" stroke="none" visibility="hidden"/></g></svg></g></svg>